<svg width="24" height="24" viewBox="0 0 24 24" fill="none" xmlns="http://www.w3.org/2000/svg">
<path d="M15 22C14.4477 22 14 21.5523 14 21C14 20.4477 14.4477 20 15 20C15.5523 20 16 20.4477 16 21C16 21.5523 15.5523 22 15 22Z" stroke="#17183B" stroke-width="2" stroke-linecap="round" stroke-linejoin="round"/>
<path d="M4 22C3.44772 22 3 21.5523 3 21C3 20.4477 3.44772 20 4 20C4.55228 20 5 20.4477 5 21C5 21.5523 4.55228 22 4 22Z" stroke="#17183B" stroke-width="2" stroke-linecap="round" stroke-linejoin="round"/>
<path d="M23 1H19L16.32 14.39C16.2286 14.8504 15.9781 15.264 15.6125 15.5583C15.2468 15.8526 14.7893 16.009 14.32 16H4.6C4.1307 16.009 3.67318 15.8526 3.30754 15.5583C2.94191 15.264 2.69145 14.8504 2.6 14.39L1 6H18" stroke="#17183B" stroke-width="2" stroke-linecap="round" stroke-linejoin="round"/>
</svg>
