<svg width="136" height="16" viewBox="0 0 136 16" fill="none" xmlns="http://www.w3.org/2000/svg">
<path d="M16 8C16 3.6 12.4 0 8 0C3.6 0 0 3.6 0 8C0 12 2.9 15.3 6.7 15.9V10.3H4.7V8H6.7V6.2C6.7 4.2 7.9 3.1 9.7 3.1C10.6 3.1 11.5 3.3 11.5 3.3V5.3H10.5C9.5 5.3 9.2 5.9 9.2 6.5V8H11.4L11 10.3H9.1V16C13.1 15.4 16 12 16 8Z" fill="#17183B"/>
<path d="M56 3.5C55.4 3.8 54.8 3.9 54.1 4C54.8 3.6 55.3 3 55.5 2.2C54.9 2.6 54.2 2.8 53.4 3C52.8 2.4 51.9 2 51 2C48.9 2 47.3 4 47.8 6C45.1 5.9 42.7 4.6 41 2.6C40.1 4.1 40.6 6 42 7C41.5 7 41 6.8 40.5 6.6C40.5 8.1 41.6 9.5 43.1 9.9C42.6 10 42.1 10.1 41.6 10C42 11.3 43.2 12.3 44.7 12.3C43.5 13.2 41.7 13.7 40 13.5C41.5 14.4 43.2 15 45 15C51.1 15 54.5 9.9 54.3 5.2C55 4.8 55.6 4.2 56 3.5Z" fill="#17183B"/>
<path d="M88 0C83.6 0 80 3.6 80 8C80 11.3 82 14.1 84.8 15.3C84.8 14.7 84.8 14.1 84.9 13.5C85.1 12.8 85.9 9.1 85.9 9.1C85.9 9.1 85.6 8.6 85.6 7.8C85.6 6.6 86.3 5.7 87.1 5.7C87.8 5.7 88.2 6.2 88.2 6.9C88.2 7.6 87.7 8.7 87.5 9.7C87.3 10.5 87.9 11.2 88.8 11.2C90.3 11.2 91.3 9.3 91.3 6.9C91.3 5.1 90.1 3.8 88 3.8C85.6 3.8 84.1 5.6 84.1 7.6C84.1 8.3 84.3 8.8 84.6 9.2C84.7 9.4 84.8 9.4 84.7 9.6C84.7 9.7 84.6 10.1 84.5 10.2C84.4 10.4 84.3 10.5 84.1 10.4C83 9.9 82.5 8.7 82.5 7.3C82.5 5 84.4 2.3 88.2 2.3C91.3 2.3 93.3 4.5 93.3 6.9C93.3 10 91.6 12.4 89 12.4C88.1 12.4 87.3 11.9 87 11.4C87 11.4 86.5 13.2 86.4 13.6C86.2 14.2 85.9 14.8 85.6 15.3C86.3 15.5 87.1 15.6 87.9 15.6C92.3 15.6 95.9 12 95.9 7.6C96 3.6 92.4 0 88 0Z" fill="#17183B"/>
<path d="M128 1.44578C130.12 1.44578 130.41 1.44578 131.277 1.44578C132.048 1.44578 132.434 1.63855 132.723 1.73494C133.108 1.92771 133.398 2.0241 133.687 2.31325C133.976 2.60241 134.169 2.89157 134.265 3.27711C134.361 3.56627 134.458 3.95181 134.554 4.72289C134.554 5.59036 134.554 5.78313 134.554 8C134.554 10.2169 134.554 10.4096 134.554 11.2771C134.554 12.0482 134.361 12.4337 134.265 12.7229C134.072 13.1084 133.976 13.3976 133.687 13.6867C133.398 13.9759 133.108 14.1687 132.723 14.2651C132.434 14.3614 132.048 14.4578 131.277 14.5542C130.41 14.5542 130.217 14.5542 128 14.5542C125.783 14.5542 125.59 14.5542 124.723 14.5542C123.952 14.5542 123.566 14.3614 123.277 14.2651C122.892 14.0723 122.602 13.9759 122.313 13.6867C122.024 13.3976 121.831 13.1084 121.735 12.7229C121.639 12.4337 121.542 12.0482 121.446 11.2771C121.446 10.4096 121.446 10.2169 121.446 8C121.446 5.78313 121.446 5.59036 121.446 4.72289C121.446 3.95181 121.639 3.56627 121.735 3.27711C121.928 2.89157 122.024 2.60241 122.313 2.31325C122.602 2.0241 122.892 1.83133 123.277 1.73494C123.566 1.63855 123.952 1.54217 124.723 1.44578C125.59 1.44578 125.88 1.44578 128 1.44578ZM128 0C125.783 0 125.59 0 124.723 0C123.855 0 123.277 0.192772 122.795 0.385543C122.313 0.578314 121.831 0.867471 121.349 1.3494C120.867 1.83133 120.675 2.21687 120.386 2.79518C120.193 3.27711 120.096 3.85542 120 4.72289C120 5.59036 120 5.87952 120 8C120 10.2169 120 10.4096 120 11.2771C120 12.1446 120.193 12.7229 120.386 13.2048C120.578 13.6867 120.867 14.1687 121.349 14.6506C121.831 15.1325 122.217 15.3253 122.795 15.6145C123.277 15.8072 123.855 15.9036 124.723 16C125.59 16 125.88 16 128 16C130.12 16 130.41 16 131.277 16C132.145 16 132.723 15.8072 133.205 15.6145C133.687 15.4217 134.169 15.1325 134.651 14.6506C135.133 14.1687 135.325 13.7831 135.614 13.2048C135.807 12.7229 135.904 12.1446 136 11.2771C136 10.4096 136 10.1205 136 8C136 5.87952 136 5.59036 136 4.72289C136 3.85542 135.807 3.27711 135.614 2.79518C135.422 2.31325 135.133 1.83133 134.651 1.3494C134.169 0.867471 133.783 0.674699 133.205 0.385543C132.723 0.192772 132.145 0.0963856 131.277 0C130.41 0 130.217 0 128 0Z" fill="#17183B"/>
<path d="M128 3.85542C125.687 3.85542 123.855 5.68675 123.855 8C123.855 10.3133 125.687 12.1446 128 12.1446C130.313 12.1446 132.145 10.3133 132.145 8C132.145 5.68675 130.313 3.85542 128 3.85542ZM128 10.6988C126.554 10.6988 125.301 9.54217 125.301 8C125.301 6.55422 126.458 5.30121 128 5.30121C129.446 5.30121 130.699 6.45783 130.699 8C130.699 9.44578 129.446 10.6988 128 10.6988Z" fill="#17183B"/>
<path d="M132.241 4.72289C132.773 4.72289 133.205 4.29136 133.205 3.75904C133.205 3.22671 132.773 2.79518 132.241 2.79518C131.709 2.79518 131.277 3.22671 131.277 3.75904C131.277 4.29136 131.709 4.72289 132.241 4.72289Z" fill="#17183B"/>
</svg>
